<?xml version="1.0" encoding="UTF-8"?>
<svg version="1.1" xmlns="http://www.w3.org/2000/svg" width="1600" height="1600">
<path d="M0 0 C8.13490506 6.38792979 13.11881562 15.59179224 15.05078125 25.6640625 C17.59106388 50.78342374 7.05303609 71.09423427 -4.14135742 92.86694336 C-10.7605352 105.77392729 -16.09085368 119.00138672 -20.94921875 132.6640625 C-21.27905762 133.59154297 -21.60889648 134.51902344 -21.94873047 135.47460938 C-40.82365681 189.50445602 -45.14487837 247.1746994 -34.07421875 303.2265625 C-33.72593018 305.01984985 -33.72593018 305.01984985 -33.37060547 306.84936523 C-31.84527177 314.08367318 -29.63137763 320.24541085 -25.94921875 326.6640625 C-20.83009578 326.35195205 -20.83009578 326.35195205 -16.6484375 323.6171875 C-15.98457031 322.72515625 -15.32070313 321.833125 -14.63671875 320.9140625 C-13.87488281 319.91632813 -13.11304688 318.91859375 -12.328125 317.890625 C-11.53509875 316.81514656 -10.74213062 315.73962527 -9.94921875 314.6640625 C-8.32813139 312.5358927 -6.70380963 310.41067806 -5.07421875 308.2890625 C-4.66284668 307.75039551 -4.25147461 307.21172852 -3.82763672 306.65673828 C2.47463023 298.44262964 9.0470035 290.37268914 16.5234375 283.1953125 C18.07647691 281.63830112 19.42526244 280.0035902 20.80078125 278.2890625 C24.16150807 274.29373035 28.12718123 271.15723994 32.20703125 267.921875 C33.98328082 266.51161092 35.73778448 265.07297206 37.45703125 263.59375 C50.82461212 252.23130626 67.78235353 244.23232099 85.53125 244.7421875 C86.956358 244.76941761 88.38148982 244.79542359 89.80664062 244.8203125 C92.03247616 244.86370976 94.25706022 244.91466728 96.48217773 244.98632812 C98.64456778 245.05282667 100.8055812 245.08764974 102.96875 245.1171875 C104.25547607 245.14973633 105.54220215 245.18228516 106.86791992 245.21582031 C110.21004431 244.99714658 110.21004431 244.99714658 111.94970703 242.30712891 C126.24161358 208.00021532 101.80092261 148.19938633 88.54296875 115.3125 C83.99612338 104.44527526 78.73236271 93.95873584 73.39331055 83.46435547 C70.12691967 76.98690922 67.13110985 70.4581164 64.42578125 63.7265625 C64.10722168 62.94063721 63.78866211 62.15471191 63.46044922 61.3449707 C60.16418305 52.89908319 58.65820054 44.9179331 58.67578125 35.8515625 C58.67819824 34.54324463 58.67819824 34.54324463 58.68066406 33.20849609 C58.86157226 23.63987107 61.05218586 15.29863846 67.05078125 7.6640625 C67.77265625 6.6740625 68.49453125 5.6840625 69.23828125 4.6640625 C78.06718278 -5.58712408 92.42592333 -9.60828501 105.4609375 -10.59375 C117.28542752 -10.95461948 128.53254488 -8.85139011 140.05078125 -6.3359375 C141.19957764 -6.0869873 141.19957764 -6.0869873 142.37158203 -5.83300781 C186.29657417 4.01106334 229.26988164 24.18904845 268.05078125 46.6640625 C268.83855957 47.1178125 269.62633789 47.5715625 270.43798828 48.0390625 C296.38074568 63.05718136 321.23571543 80.07311692 344.30224609 99.21972656 C346.78167227 101.26779767 349.29450171 103.27399941 351.80078125 105.2890625 C356.7177992 109.311405 361.38463915 113.56245322 366.03125 117.890625 C368.19536991 119.90262267 370.41417407 121.83395842 372.66015625 123.75390625 C377.84240126 128.27078418 382.67517768 133.13861293 387.52368164 138.0065918 C389.11038071 139.59865216 390.70235867 141.1852924 392.29492188 142.77148438 C397.75737929 148.23005297 403.05550373 153.7702417 408.05078125 159.6640625 C408.99969381 160.74750444 409.95016364 161.82958487 410.90234375 162.91015625 C418.7033586 171.85441129 425.94270616 181.16356779 433.05078125 190.6640625 C433.53434082 191.3048877 434.01790039 191.94571289 434.51611328 192.60595703 C491.46308377 268.12216419 525.12388863 359.54842093 543.23828125 539.7890625 C543.23737488 541.35560577 543.23737488 541.35560577 543.2364502 542.95379639 C543.20740773 561.59091324 542.64016629 580.09488169 541.05078125 598.6640625 C540.98997375 599.3852124 540.92916626 600.1063623 540.86651611 600.84936523 C533.07294104 692.39199299 512.88731661 789.30252489 395.84765625 935.453125 C394.09369955 936.87132427 392.32889268 938.27626821 390.55078125 939.6640625 C387.78128774 941.87965731 385.20780452 944.24643855 382.61328125 946.6640625 C377.59280392 951.26734523 372.34594075 955.38427251 366.82910156 959.37451172 C364.84074871 960.81636781 362.86392448 962.27336775 360.88671875 963.73046875 C350.84463146 971.09664418 340.60958779 978.06089194 330.05078125 984.6640625 C329.1700293 985.21924561 329.1700293 985.21924561 328.27148438 985.78564453 C300.38187642 1003.28453658 270.66114039 1017.15039118 239.84814453 1028.59375 C227.18845247 1033.33957709 215.4688529 1039.19150088 204.17578125 1046.6640625 C163.7731013 1072.34431811 108.88555281 1079.72277926 62.05078125 1084.6640625 C61.04547363 1084.77081299 60.04016602 1084.87756348 59.00439453 1084.98754883 C49.21045311 1085.88363781 39.39688454 1085.85016181 29.5703125 1085.84936523 C26.58448724 1085.85153797 23.59904087 1085.86971545 20.61328125 1085.88867188 C-20.61802548 1086.01207622 -63.74946613 1078.51216087 -101.94921875 1062.6640625 C-102.72378418 1062.34953125 -103.49834961 1062.035 -104.29638672 1061.7109375 C-116.31234735 1056.74267757 -127.00332638 1049.99806777 -137.70410156 1042.69165039 C-148.16989389 1035.59472753 -159.11893389 1031.15285265 -170.85327148 1026.65380859 C-221.79460274 1007.09540212 -272.36772515 980.39475854 -312.51245117 942.86425781 C-314.90505265 940.70394076 -317.37521377 938.71406505 -319.90625 936.71875 C-326.15970563 931.62649378 -331.83599587 926.04626239 -337.50292969 920.31616211 C-339.20581267 918.5948974 -340.91668804 916.8818959 -342.62890625 915.16992188 C-348.27905224 909.50165594 -353.7721347 903.77284737 -358.94921875 897.6640625 C-359.87422346 896.61535041 -360.80123863 895.56840743 -361.73046875 894.5234375 C-422.93426906 824.89545584 -447.93205668 736.47336544 -466.26171875 605.4140625 C-466.38382217 604.06501831 -466.38382217 604.06501831 -466.50839233 602.6887207 C-468.32558527 582.28287992 -469.15883555 561.9624536 -469.13671875 541.4765625 C-469.1361145 540.43125366 -469.13551025 539.38594482 -469.1348877 538.30895996 C-469.10639599 520.02215016 -468.59327103 501.88527751 -466.94921875 483.6640625 C-466.88605469 482.96035522 -466.82289063 482.25664795 -466.7578125 481.53161621 C-459.05688626 396.92052033 -435.35310564 314.06415384 -391.94921875 240.6640625 C-391.38058105 239.69984375 -390.81194336 238.735625 -390.22607422 237.7421875 C-376.67686749 214.87151983 -361.89896587 192.81336106 -344.515625 172.6640625 C-342.18203353 169.93621128 -339.93483593 167.15966483 -337.69921875 164.3515625 C-328.55306941 153.16400548 -318.29889008 142.92011277 -308.13021851 132.66983032 C-306.74336763 131.27108987 -305.36050771 129.86839589 -303.9777832 128.46557617 C-298.72278834 123.20385215 -293.30776757 118.34403906 -287.47802734 113.7253418 C-284.81823275 111.55729335 -282.32049588 109.26755804 -279.82421875 106.9140625 C-273.23219818 100.84940358 -266.09528443 95.54651451 -258.9375 90.17333984 C-256.27853998 88.15495934 -253.68332022 86.05882618 -251.07421875 83.9765625 C-234.04672285 70.88013215 -215.52640168 59.40098774 -196.94921875 48.6640625 C-195.97710449 48.09631104 -195.97710449 48.09631104 -194.98535156 47.51708984 C-164.69509484 29.85962407 -133.05652827 15.18969208 -99.94921875 3.6640625 C-98.88960937 3.29265137 -97.83 2.92124023 -96.73828125 2.53857422 C-81.35786595 -2.7947272 -65.97795479 -6.53172151 -49.94921875 -9.3359375 C-48.87800781 -9.53703125 -47.80679687 -9.738125 -46.703125 -9.9453125 C-30.53540267 -12.23860645 -13.5910963 -9.31493975 0 0 Z " fill="#166228" transform="translate(762.94921875,311.3359375)"/>
<path d="M0 0 C58.79392031 -0.99650712 123.09472583 32.30487968 172 62 C172.76763672 62.46390137 173.53527344 62.92780273 174.32617188 63.40576172 C197.06745066 77.19973647 218.60026234 92.95003476 239 110 C239.87833496 110.72968994 239.87833496 110.72968994 240.77441406 111.47412109 C257.39016012 125.31433548 274.06231113 140.21519301 288.07421875 156.73046875 C289.68309967 158.62653329 291.31289487 160.49794683 292.95703125 162.36328125 C299.97362834 170.34320557 306.68098031 178.45100908 313 187 C313.74999268 188.01102783 313.74999268 188.01102783 314.51513672 189.04248047 C367.94008706 261.30991862 401.5708775 347.41480615 415 468 C415.1045752 469.21381348 415.20915039 470.42762695 415.31689453 471.67822266 C416.34395467 485.42686493 416.24585408 499.22069369 416.25 513 C416.25044186 513.67377937 416.25088371 514.34755875 416.25133896 515.04175568 C416.2593763 538.47628916 415.53551927 561.69204512 413 585 C412.91514343 585.79269287 412.83028687 586.58538574 412.74285889 587.40209961 C403.56949485 672.53739264 383.94278077 758.87283691 313 849 C312.24420654 849.84256348 312.24420654 849.84256348 311.47314453 850.70214844 C301.5642477 861.69770268 291.31678088 872.44136187 280 882 C278.515 883.30130859 278.515 883.30130859 277 884.62890625 C257.26705177 901.88302852 235.94716543 916.97513141 213.50048828 930.47949219 C211.76168462 931.5368315 210.03691519 932.61745667 208.32373047 933.71582031 C207.45248535 934.26592773 206.58124023 934.81603516 205.68359375 935.3828125 C204.51461548 936.13522217 204.51461548 936.13522217 203.32202148 936.90283203 C200.6177451 938.18061755 198.9549953 938.43137053 196 938 C194.15426664 935.76759909 192.76025091 933.78132224 191.3125 931.3125 C190.72758789 930.37374023 190.72758789 930.37374023 190.13085938 929.41601562 C188.06622726 926.04554781 186.33596683 922.73642061 185 919 C182.47759467 919.87064664 179.95717217 920.74650198 177.4375 921.625 C176.75236328 921.86089844 176.06722656 922.09679688 175.36132812 922.33984375 C170.56519864 924.0174137 165.85757464 925.85916014 161.15234375 927.77734375 C151.93118622 931.51134679 142.54117626 934.73439195 133.125 937.9375 C131.77654495 938.39780106 131.77654495 938.39780106 130.40084839 938.86740112 C116.88523622 943.47157122 103.34897644 947.71302215 89.53125 951.328125 C87.14698053 951.96098665 84.77591083 952.62719739 82.40625 953.3125 C69.39644133 957.06870019 56.2151725 960.06073922 43 963 C41.93668457 963.24387451 40.87336914 963.48774902 39.77783203 963.73901367 C30.55897223 965.80206462 21.29255161 967.29745419 11.95263672 968.67993164 C9.39832564 969.05903805 6.84565111 969.44798621 4.29296875 969.83789062 C-85.35768339 983.3554085 -183.79790638 976.17212667 -285.6875 919.5 C-286.48422119 919.00757813 -287.28094238 918.51515625 -288.10180664 918.0078125 C-295.00905511 913.61291157 -295.00905511 913.61291157 -297 910 C-297.71376689 905.89584037 -297.15287261 904.26629423 -295.0625 900.625 C-292.60490375 898.02876137 -291.88448835 897.98233486 -288.06640625 897.3984375 C-281.3641116 897.60845583 -276.34654499 901.46485402 -270.875 905 C-268.63682944 906.39159771 -266.39725339 907.78093757 -264.15625 909.16796875 C-262.55330078 910.17029541 -262.55330078 910.17029541 -260.91796875 911.19287109 C-233.23048465 928.34002281 -201.51490888 938.55645634 -170 946 C-169.18128418 946.19432617 -168.36256836 946.38865234 -167.51904297 946.58886719 C-134.16313745 954.37259102 -98.20771965 957.33831389 -64 956 C-62.72624512 955.95214355 -61.45249023 955.90428711 -60.14013672 955.85498047 C-31.00207835 954.69863676 -2.41705537 951.37165365 26.25 946.0625 C27.57523682 945.81787018 27.57523682 945.81787018 28.92724609 945.56829834 C46.30498723 942.33450411 63.56555793 938.53462314 80.5 933.4375 C81.44101562 933.15970703 82.38203125 932.88191406 83.3515625 932.59570312 C86.23750755 931.74053549 89.11932175 930.8727356 92 930 C92.99386719 929.69989014 93.98773437 929.39978027 95.01171875 929.09057617 C104.0513804 926.33726929 113.03268504 923.41650976 122 920.4375 C122.77415253 920.18043274 123.54830505 919.92336548 124.34591675 919.6585083 C135.50010257 915.94364004 146.57122423 912.04769916 157.5625 907.875 C158.78001953 907.41407959 159.99753906 906.95315918 161.25195312 906.47827148 C167.34822226 904.18011703 167.34822226 904.18011703 173 901 C172.60433838 900.35901367 172.20867676 899.71802734 171.80102539 899.05761719 C163.92636174 886.29472532 156.08282616 873.51421341 148.3125 860.6875 C142.90709632 851.76498073 137.46010703 842.87028102 131.95239258 834.01049805 C127.41802552 826.7039982 122.9551641 819.35491086 118.5 812 C112.96988535 802.87065651 107.40416338 793.76530276 101.76635742 784.7019043 C98.86918233 780.03872753 95.99929897 775.36047358 93.15625 770.6640625 C92.19464966 769.07621948 92.19464966 769.07621948 91.21362305 767.45629883 C89.97036265 765.40037689 88.72953743 763.34297987 87.49145508 761.28393555 C86.65457153 759.90008667 86.65457153 759.90008667 85.80078125 758.48828125 C85.30747314 757.66884033 84.81416504 756.84939941 84.3059082 756.00512695 C83.02473841 753.88699089 83.02473841 753.88699089 81 752 C77.60550558 755.35221424 74.327901 758.7770294 71.125 762.3125 C70.24972656 763.27542969 69.37445312 764.23835938 68.47265625 765.23046875 C66.45191448 767.49382722 64.50199793 769.79292899 62.5625 772.125 C42.13193271 795.50137002 8.34347661 812.80243915 -22.46240234 815.19091797 C-27.9926146 815.46285862 -33.47504628 815.315423 -39 815 C-39.82918945 814.95601074 -40.65837891 814.91202148 -41.51269531 814.86669922 C-74.71080624 812.89560099 -100.14370299 796.52795351 -122 772 C-148.48344269 740.87853269 -157.74473604 702.45480596 -154.6875 662.28515625 C-154.29913431 658.1588294 -153.71473577 654.08175615 -153 650 C-152.8870459 649.35144043 -152.7740918 648.70288086 -152.65771484 648.03466797 C-147.49494651 620.06448932 -134.26413411 594.01880252 -121.24154663 569.01489258 C-88.3105918 505.75609243 -77.85859696 442.75812295 -99.5612793 373.51171875 C-100.32076791 371.16739867 -101.10699592 368.83367667 -101.8984375 366.5 C-103 363 -103 363 -103 360 C-100.03 360.33 -97.06 360.66 -94 361 C-93.69932617 360.40276123 -93.39865234 359.80552246 -93.08886719 359.19018555 C-80.35313851 334.01955322 -65.65700032 311.17767302 -47 290 C-46.5477002 289.48453613 -46.09540039 288.96907227 -45.62939453 288.43798828 C-32.00302962 272.99283984 -12.41107509 252.69663817 9.3125 250.125 C10.529375 250.08375 11.74625 250.0425 13 250 C11.6154545 254.69207086 10.21598015 259.37213786 8.67578125 264.015625 C-8.02026585 314.69685645 -17.24118021 379.13371108 4 430 C30.0015243 380.38833247 52.59532865 330.10352752 62.75 274.6875 C62.94899902 273.60364014 63.14799805 272.51978027 63.35302734 271.40307617 C66.48317422 253.42958471 67.37666274 235.72307696 67.3125 217.5 C67.31034485 216.39683441 67.3081897 215.29366882 67.30596924 214.15707397 C67.25405788 197.58339904 66.79356058 181.37232316 64 165 C63.80132324 163.80068848 63.60264648 162.60137695 63.39794922 161.36572266 C57.23231656 124.98618073 46.20134301 90.5813817 31 57 C30.34879408 55.53132282 29.69774093 54.06257788 29.046875 52.59375 C21.95884675 36.84402117 13.48938429 21.39617744 3.48828125 7.3046875 C1.96294966 4.94262546 0.95325296 2.63905501 0 0 Z " fill="#16682B" transform="translate(850,312)"/>
<path d="M0 0 C8.13490506 6.38792979 13.11881562 15.59179224 15.05078125 25.6640625 C17.59106388 50.78342374 7.05303609 71.09423427 -4.14135742 92.86694336 C-10.7605352 105.77392729 -16.09085368 119.00138672 -20.94921875 132.6640625 C-21.27905762 133.59154297 -21.60889648 134.51902344 -21.94873047 135.47460938 C-40.82365681 189.50445602 -45.14487837 247.1746994 -34.07421875 303.2265625 C-33.72593018 305.01984985 -33.72593018 305.01984985 -33.37060547 306.84936523 C-31.84527177 314.08367318 -29.63137763 320.24541085 -25.94921875 326.6640625 C-20.83009578 326.35195205 -20.83009578 326.35195205 -16.6484375 323.6171875 C-15.98457031 322.72515625 -15.32070313 321.833125 -14.63671875 320.9140625 C-13.87488281 319.91632813 -13.11304688 318.91859375 -12.328125 317.890625 C-11.53509875 316.81514656 -10.74213062 315.73962527 -9.94921875 314.6640625 C-8.32813139 312.5358927 -6.70380963 310.41067806 -5.07421875 308.2890625 C-4.66284668 307.75039551 -4.25147461 307.21172852 -3.82763672 306.65673828 C2.47463023 298.44262964 9.0470035 290.37268914 16.5234375 283.1953125 C18.07647691 281.63830112 19.42526244 280.0035902 20.80078125 278.2890625 C24.16150807 274.29373035 28.12718123 271.15723994 32.20703125 267.921875 C33.98328082 266.51161092 35.73778448 265.07297206 37.45703125 263.59375 C50.82461212 252.23130626 67.78235353 244.23232099 85.53125 244.7421875 C86.956358 244.76941761 88.38148982 244.79542359 89.80664062 244.8203125 C92.03247616 244.86370976 94.25706022 244.91466728 96.48217773 244.98632812 C98.64456778 245.05282667 100.8055812 245.08764974 102.96875 245.1171875 C104.25547607 245.14973633 105.54220215 245.18228516 106.86791992 245.21582031 C110.21004431 244.99714658 110.21004431 244.99714658 111.94970703 242.30712891 C126.24161358 208.00021532 101.80092261 148.19938633 88.54296875 115.3125 C83.99612338 104.44527526 78.73236271 93.95873584 73.39331055 83.46435547 C70.12691967 76.98690922 67.13110985 70.4581164 64.42578125 63.7265625 C64.10722168 62.94063721 63.78866211 62.15471191 63.46044922 61.3449707 C60.16418305 52.89908319 58.65820054 44.9179331 58.67578125 35.8515625 C58.67819824 34.54324463 58.67819824 34.54324463 58.68066406 33.20849609 C58.86157226 23.63987107 61.05218586 15.29863846 67.05078125 7.6640625 C67.77265625 6.6740625 68.49453125 5.6840625 69.23828125 4.6640625 C78.06718278 -5.58712408 92.42592333 -9.60828501 105.4609375 -10.59375 C117.28542752 -10.95461948 128.53254488 -8.85139011 140.05078125 -6.3359375 C141.19957764 -6.0869873 141.19957764 -6.0869873 142.37158203 -5.83300781 C186.29657417 4.01106334 229.26988164 24.18904845 268.05078125 46.6640625 C268.83855957 47.1178125 269.62633789 47.5715625 270.43798828 48.0390625 C296.38074568 63.05718136 321.23571543 80.07311692 344.30224609 99.21972656 C346.78167227 101.26779767 349.29450171 103.27399941 351.80078125 105.2890625 C356.7177992 109.311405 361.38463915 113.56245322 366.03125 117.890625 C368.19536991 119.90262267 370.41417407 121.83395842 372.66015625 123.75390625 C377.84240126 128.27078418 382.67517768 133.13861293 387.52368164 138.0065918 C389.11038071 139.59865216 390.70235867 141.1852924 392.29492188 142.77148438 C397.75737929 148.23005297 403.05550373 153.7702417 408.05078125 159.6640625 C408.99969381 160.74750444 409.95016364 161.82958487 410.90234375 162.91015625 C418.7033586 171.85441129 425.94270616 181.16356779 433.05078125 190.6640625 C433.53434082 191.3048877 434.01790039 191.94571289 434.51611328 192.60595703 C491.46308377 268.12216419 525.12388863 359.54842093 543.23828125 539.7890625 C543.23737488 541.35560577 543.23737488 541.35560577 543.2364502 542.95379639 C543.20740773 561.59091324 542.64016629 580.09488169 541.05078125 598.6640625 C540.98997375 599.3852124 540.92916626 600.1063623 540.86651611 600.84936523 C533.07294104 692.39199299 512.88731661 789.30252489 395.84765625 935.453125 C394.09369955 936.87132427 392.32889268 938.27626821 390.55078125 939.6640625 C387.78128774 941.87965731 385.20780452 944.24643855 382.61328125 946.6640625 C377.59280392 951.26734523 372.34594075 955.38427251 366.82910156 959.37451172 C364.84074871 960.81636781 362.86392448 962.27336775 360.88671875 963.73046875 C350.84463146 971.09664418 340.60958779 978.06089194 330.05078125 984.6640625 C329.1700293 985.21924561 329.1700293 985.21924561 328.27148438 985.78564453 C300.38187642 1003.28453658 270.66114039 1017.15039118 239.84814453 1028.59375 C227.18845247 1033.33957709 215.4688529 1039.19150088 204.17578125 1046.6640625 C163.7731013 1072.34431811 108.88555281 1079.72277926 62.05078125 1084.6640625 C61.04547363 1084.77081299 60.04016602 1084.87756348 59.00439453 1084.98754883 C49.21045311 1085.88363781 39.39688454 1085.85016181 29.5703125 1085.84936523 C26.58448724 1085.85153797 23.59904087 1085.86971545 20.61328125 1085.88867188 C-20.61802548 1086.01207622 -63.74946613 1078.51216087 -101.94921875 1062.6640625 C-102.72378418 1062.34953125 -103.49834961 1062.035 -104.29638672 1061.7109375 C-116.31234735 1056.74267757 -127.00332638 1049.99806777 -137.70410156 1042.69165039 C-148.16989389 1035.59472753 -159.11893389 1031.15285265 -170.85327148 1026.65380859 C-221.79460274 1007.09540212 -272.36772515 980.39475854 -312.51245117 942.86425781 C-314.90505265 940.70394076 -317.37521377 938.71406505 -319.90625 936.71875 C-326.15970563 931.62649378 -331.83599587 926.04626239 -337.50292969 920.31616211 C-339.20581267 918.5948974 -340.91668804 916.8818959 -342.62890625 915.16992188 C-348.27905224 909.50165594 -353.7721347 903.77284737 -358.94921875 897.6640625 C-359.87422346 896.61535041 -360.80123863 895.56840743 -361.73046875 894.5234375 C-422.93426906 824.89545584 -447.93205668 736.47336544 -466.26171875 605.4140625 C-466.38382217 604.06501831 -466.38382217 604.06501831 -466.50839233 602.6887207 C-468.32558527 582.28287992 -469.15883555 561.9624536 -469.13671875 541.4765625 C-469.1361145 540.43125366 -469.13551025 539.38594482 -469.1348877 538.30895996 C-469.10639599 520.02215016 -468.59327103 501.88527751 -466.94921875 483.6640625 C-466.88605469 482.96035522 -466.82289063 482.25664795 -466.7578125 481.53161621 C-459.05688626 396.92052033 -435.35310564 314.06415384 -391.94921875 240.6640625 C-391.38058105 239.69984375 -390.81194336 238.735625 -390.22607422 237.7421875 C-376.67686749 214.87151983 -361.89896587 192.81336106 -344.515625 172.6640625 C-342.18203353 169.93621128 -339.93483593 167.15966483 -337.69921875 164.3515625 C-328.55306941 153.16400548 -318.29889008 142.92011277 -308.13021851 132.66983032 C-306.74336763 131.27108987 -305.36050771 129.86839589 -303.9777832 128.46557617 C-298.72278834 123.20385215 -293.30776757 118.34403906 -287.47802734 113.7253418 C-284.81823275 111.55729335 -282.32049588 109.26755804 -279.82421875 106.9140625 C-273.23219818 100.84940358 -266.09528443 95.54651451 -258.9375 90.17333984 C-256.27853998 88.15495934 -253.68332022 86.05882618 -251.07421875 83.9765625 C-234.04672285 70.88013215 -215.52640168 59.40098774 -196.94921875 48.6640625 C-195.97710449 48.09631104 -195.97710449 48.09631104 -194.98535156 47.51708984 C-164.69509484 29.85962407 -133.05652827 15.18969208 -99.94921875 3.6640625 C-98.88960937 3.29265137 -97.83 2.92124023 -96.73828125 2.53857422 C-81.35786595 -2.7947272 -65.97795479 -6.53172151 -49.94921875 -9.3359375 C-48.87800781 -9.53703125 -47.80679687 -9.738125 -46.703125 -9.9453125 C-30.53540267 -12.23860645 -13.5910963 -9.31493975 0 0 Z M-150.94921875 43.6640625 C-151.84576172 44.11104492 -152.74230469 44.55802734 -153.66601562 45.01855469 C-188.91201902 62.69763595 -221.72979362 85.4068677 -251.94921875 110.6640625 C-252.53477539 111.15052246 -253.12033203 111.63698242 -253.72363281 112.13818359 C-270.33937887 125.97839798 -287.01152988 140.87925551 -301.0234375 157.39453125 C-302.63231842 159.29059579 -304.26211362 161.16200933 -305.90625 163.02734375 C-312.92284709 171.00726807 -319.63019906 179.11507158 -325.94921875 187.6640625 C-326.44921387 188.33808105 -326.94920898 189.01209961 -327.46435547 189.70654297 C-381.69226208 263.06013266 -414.02049263 349.1149945 -425.19921875 439.4140625 C-425.35028076 440.61708008 -425.50134277 441.82009766 -425.65698242 443.05957031 C-428.42175461 466.78078546 -429.3310206 490.54669688 -429.26171875 514.4140625 C-429.25989594 515.73246124 -429.25807312 517.05085999 -429.25619507 518.40921021 C-429.21254792 541.26290458 -428.40513148 563.93636301 -425.94921875 586.6640625 C-425.86436218 587.45159912 -425.77950562 588.23913574 -425.69207764 589.05053711 C-420.44306307 637.06311611 -410.7914136 684.68567089 -395.94921875 730.6640625 C-395.61567383 731.70578613 -395.28212891 732.74750977 -394.93847656 733.82080078 C-383.96183681 767.76100776 -366.87024362 798.56868469 -344.94921875 826.6640625 C-344.00369141 827.88222656 -344.00369141 827.88222656 -343.0390625 829.125 C-335.68039187 838.4631077 -328.09358734 847.83486469 -319.5234375 856.09375 C-317.73609431 857.8766581 -316.09654227 859.75127625 -314.44921875 861.6640625 C-309.394568 867.50674343 -303.94687022 872.76072949 -298.09375 877.796875 C-295.79814446 879.79559895 -293.56442275 881.85351479 -291.32421875 883.9140625 C-285.73398924 888.95122516 -279.8598137 893.56918592 -273.90136719 898.15771484 C-271.86174946 899.73155694 -269.83116285 901.31660912 -267.80078125 902.90234375 C-243.16159435 922.05737914 -216.15240727 938.30591456 -187.94921875 951.6640625 C-187.10697754 952.06705566 -186.26473633 952.47004883 -185.39697266 952.88525391 C-172.01714078 959.22357084 -158.41700321 964.426255 -144.38671875 969.1015625 C-143.63684692 969.35272827 -142.8869751 969.60389404 -142.11437988 969.8626709 C-131.83207163 973.28822801 -121.4983332 976.18134068 -110.94921875 978.6640625 C-111.60921875 979.6540625 -112.26921875 980.6440625 -112.94921875 981.6640625 C-113.52019803 986.42022617 -113.52019803 986.42022617 -111.55078125 990.59375 C-107.69936785 993.65868859 -103.45759072 995.42521319 -98.94921875 997.3515625 C-97.93883545 997.78436523 -96.92845215 998.21716797 -95.88745117 998.66308594 C-57.40107234 1014.75009351 -16.57992165 1021.88482332 24.98828125 1021.9140625 C25.86039246 1021.91473724 26.73250366 1021.91541199 27.63104248 1021.91610718 C78.17464718 1021.85459063 127.85089494 1011.13377732 175.55078125 994.8515625 C176.37594238 994.57376953 177.20110352 994.29597656 178.05126953 994.00976562 C178.8039209 993.74486328 179.55657227 993.47996094 180.33203125 993.20703125 C180.98236328 992.98039795 181.63269531 992.75376465 182.30273438 992.52026367 C184.36820737 991.50858577 185.60338504 990.44887334 187.05078125 988.6640625 C187.48324381 984.59891442 186.96909136 982.20261859 185.05078125 978.6640625 C185.70224121 978.49914307 186.35370117 978.33422363 187.02490234 978.16430664 C237.92400555 965.162085 286.44438977 943.65154859 329.05078125 912.6640625 C330.02120361 911.95950928 330.02120361 911.95950928 331.01123047 911.24072266 C344.74201655 901.21607811 358.0430143 890.67316067 370.46875 879.0625 C372.56077038 877.11923144 374.68200497 875.2543684 376.86328125 873.4140625 C386.25194007 865.26802029 395.05632906 856.17288228 403.05078125 846.6640625 C403.90414062 845.69984375 404.7575 844.735625 405.63671875 843.7421875 C426.59668951 819.97488933 443.3961758 793.19500125 457.05078125 764.6640625 C457.89382813 762.92769531 457.89382813 762.92769531 458.75390625 761.15625 C486.78407785 700.51153295 496.81758144 628.63878025 502.05078125 562.6640625 C502.15535645 561.36267334 502.25993164 560.06128418 502.36767578 558.72045898 C503.34493482 544.65859308 503.29512096 530.56633946 503.30078125 516.4765625 C503.30137039 515.80378643 503.30195953 515.13101036 503.30256653 514.43784714 C503.31615092 492.40809077 502.75221097 470.5579857 500.27539062 448.65228271 C500.05388616 446.69154687 499.84133181 444.72980662 499.62890625 442.76806641 C489.41253277 350.66698649 455.79702577 260.29907028 399.05078125 186.6640625 C398.43299805 185.85702881 398.43299805 185.85702881 397.80273438 185.03369141 C381.25646634 163.45511855 362.83642891 142.01121583 342.05078125 124.38671875 C339.61688994 122.29033971 337.279437 120.1000887 334.92578125 117.9140625 C329.16998685 112.67147337 323.12215902 107.89515961 316.95507812 103.14892578 C315.05430012 101.66680632 313.1835567 100.15310083 311.31640625 98.62890625 C281.28061965 74.34041223 247.47280981 54.94695059 213.05078125 37.6640625 C212.19709961 37.23254883 211.34341797 36.80103516 210.46386719 36.35644531 C174.13547671 18.10951461 128.48038407 -0.81556617 87.05078125 0.6640625 C88.70799338 5.56825422 91.48462603 9.5587699 94.30078125 13.8515625 C123.82156359 59.88320321 142.14251968 111.88937404 151.05078125 165.6640625 C151.31979248 167.2406665 151.31979248 167.2406665 151.59423828 168.84912109 C156.8086264 200.81378628 156.72210911 236.77825452 151.05078125 268.6640625 C150.85742188 269.80472168 150.6640625 270.94538086 150.46484375 272.12060547 C141.6746326 323.02379581 122.16716398 370.31015922 98.921875 416.16015625 C98.59005722 416.81620346 98.25823944 417.47225067 97.91636658 418.1481781 C95.74964404 422.39570219 93.44323316 426.53931727 91.05078125 430.6640625 C71.55021763 374.16038021 78.33320455 310.23913661 99.203125 255.078125 C100.16121536 252.77598061 100.16121536 252.77598061 100.05078125 250.6640625 C79.58744366 250.6640625 60.37967202 269.53374797 46.7734375 282.94091797 C38.80379564 290.91281879 31.82607283 299.6739483 25.05078125 308.6640625 C24.57769531 309.29135254 24.10460937 309.91864258 23.6171875 310.56494141 C11.71094076 326.51656941 1.76696381 343.78820097 -6.94921875 361.6640625 C-9.91921875 361.3340625 -12.88921875 361.0040625 -15.94921875 360.6640625 C-15.48515625 362.7678125 -15.48515625 362.7678125 -15.01171875 364.9140625 C-14.75068359 366.09742188 -14.75068359 366.09742188 -14.484375 367.3046875 C-14.02344229 369.59346935 -14.02344229 369.59346935 -13.27807617 371.42407227 C-12.79709024 374.7002756 -13.9081884 376.81590795 -15.15234375 379.86328125 C-15.88130859 381.67795898 -15.88130859 381.67795898 -16.625 383.52929688 C-17.14922242 384.80359829 -17.67396555 386.07768561 -18.19921875 387.3515625 C-19.20868827 389.83293473 -20.21177569 392.31680561 -21.21484375 394.80078125 C-21.68986328 395.97560059 -22.16488281 397.15041992 -22.65429688 398.36083984 C-24.24580545 402.420627 -25.63421259 406.50738207 -26.94921875 410.6640625 C-50.4017733 367.5235717 -67.55121412 321.19984611 -76.19921875 272.7890625 C-76.35044189 271.94746582 -76.50166504 271.10586914 -76.6574707 270.23876953 C-79.57754219 252.90300914 -80.32353577 235.72092203 -80.26171875 218.1640625 C-80.2595636 217.06089691 -80.25740845 215.95773132 -80.25518799 214.82113647 C-80.20327663 198.24746154 -79.74277933 182.03638566 -76.94921875 165.6640625 C-76.65120361 163.86509521 -76.65120361 163.86509521 -76.34716797 162.02978516 C-70.18153531 125.65024323 -59.15056176 91.2454442 -43.94921875 57.6640625 C-43.29801283 56.19538532 -42.64695968 54.72664038 -41.99609375 53.2578125 C-34.7398103 37.13146947 -25.97973382 21.49637248 -15.84423828 7.00341797 C-13.63630077 4.11097476 -13.63630077 4.11097476 -12.94921875 0.6640625 C-60.8037641 -0.14703149 -109.05013034 22.66339067 -150.94921875 43.6640625 Z " fill="#000000" transform="translate(762.94921875,311.3359375)"/>
<path d="M0 0 C2.79974707 2.64420557 4.91929845 5.20423087 6.890625 8.5078125 C7.426875 9.39855469 7.963125 10.28929687 8.515625 11.20703125 C9.08796875 12.16996094 9.6603125 13.13289062 10.25 14.125 C11.50448232 16.2113742 12.75971952 18.29729466 14.015625 20.3828125 C14.66853516 21.46981445 15.32144531 22.55681641 15.99414062 23.67675781 C19.29215759 29.14080441 22.64738711 34.56934481 26 40 C31.08888164 48.25497039 36.1535611 56.52391381 41.1875 64.8125 C45.52812264 71.95921862 49.90009345 79.08488491 54.3125 86.1875 C59.80394688 95.02819583 65.21069847 103.91890722 70.60269165 112.82040405 C75.19731005 120.40397887 79.81859714 127.96956156 84.5 135.5 C89.93086708 144.23601599 95.27418472 153.02366512 100.60351562 161.82177734 C105.19786004 169.40489376 109.81887911 176.97001514 114.5 184.5 C119.55599799 192.63300688 124.53849191 200.80917945 129.5 209 C135.04067037 218.14676931 140.62112064 227.26688207 146.2644043 236.35083008 C150.74010826 243.56187961 155.15371144 250.80969594 159.55932617 258.0637207 C164.01327973 265.3921029 168.50040032 272.69956842 173 280 C178.60051108 289.08733065 184.16879496 298.19338165 189.7109375 307.31640625 C194.11497736 314.56015507 198.55223368 321.78303051 203 329 C208.60047153 338.08735515 214.16879481 347.19338141 219.7109375 356.31640625 C224.11497736 363.56015507 228.55223368 370.78303051 233 378 C238.60047153 387.08735515 244.16879481 396.19338141 249.7109375 405.31640625 C254.11497736 412.56015507 258.55223368 419.78303051 263 427 C268.60047153 436.08735515 274.16879481 445.19338141 279.7109375 454.31640625 C284.7804805 462.65477222 289.89528882 470.9648965 295.01708984 479.27124023 C298.33233457 484.65155404 301.63631399 490.03815248 304.9140625 495.44140625 C305.53925781 496.47201172 306.16445313 497.50261719 306.80859375 498.56445312 C307.97706037 500.49305125 309.14386395 502.42265845 310.30859375 504.35351562 C313.73063435 510.00279676 317.28792691 515.53680763 321 521 C320.62488281 520.175 320.24976563 519.35 319.86328125 518.5 C298.66023714 470.64627829 304.29798929 419.67388579 322.55029297 371.6171875 C327.25082646 359.88881023 332.6316278 348.43432301 338 337 C338.33 337 338.66 337 339 337 C339.09498779 337.73412109 339.18997559 338.46824219 339.2878418 339.22460938 C341.95515182 360.01593378 341.95515182 360.01593378 348 380 C348.27827637 380.70882324 348.55655273 381.41764648 348.84326172 382.14794922 C355.58605482 398.984875 364.70425508 413.67995248 377 427 C377.48807129 427.5372168 377.97614258 428.07443359 378.47900391 428.62792969 C400.89759244 453.070066 427.12671556 463.65528344 459.77734375 465.26171875 C492.6946107 466.35689461 522.33720536 451.95461897 547 431 C547.98871094 430.1646875 548.97742188 429.329375 549.99609375 428.46875 C556.40919935 422.84727602 561.77441167 416.72464599 567 410 C569.73121901 406.50040735 571.89330214 403.8682462 576 402 C583.69631411 414.48201667 591.38668392 426.96712324 599 439.5 C603.97178929 447.68418788 608.97587941 455.84783498 614 464 C619.60047153 473.08735515 625.16879481 482.19338141 630.7109375 491.31640625 C635.11497806 498.56015623 639.55240397 505.78292464 644 513 C649.30715031 521.61557079 654.6042368 530.23711042 659.875 538.875 C660.46410156 539.83792969 661.05320312 540.80085938 661.66015625 541.79296875 C662.47419922 543.12908203 662.47419922 543.12908203 663.3046875 544.4921875 C663.77890137 545.26933105 664.25311523 546.04647461 664.74169922 546.84716797 C665.9195508 548.86235913 666.98351011 550.89957256 668 553 C657.74864836 557.54789828 647.37073457 561.54104881 636.8125 565.3125 C636.0296463 565.59313293 635.2467926 565.87376587 634.44021606 566.16290283 C628.96564806 568.12428374 623.48498208 570.06794756 618 572 C617.34422974 572.23132629 616.68845947 572.46265259 616.01281738 572.70098877 C599.80016565 578.40963172 583.49786651 583.1600575 566.81542969 587.29052734 C563.3156221 588.17245943 559.8486237 589.14536006 556.375 590.125 C546.79164382 592.69294607 537.03570407 594.47737561 527.29833984 596.35449219 C524.11705492 596.97709155 520.94314188 597.62858266 517.76953125 598.2890625 C488.76668761 604.24325858 459.54741867 606.88986928 430 608 C428.94151855 608.04141113 427.88303711 608.08282227 426.79248047 608.12548828 C357.57240867 610.45270475 280.95920676 595.62209765 222.5234375 557.0859375 C221.81131104 556.62002197 221.09918457 556.15410645 220.36547852 555.67407227 C219.05013596 554.80171343 217.74702677 553.91044369 216.46069336 552.99584961 C211.82614907 549.89284123 207.55326077 548.98346857 202 550 C198.93981129 552.53771747 198.16549815 554.11734319 197.4375 558 C198.30883278 562.64710817 201.35150928 564.84017388 205.07299805 567.45849609 C207.56547875 569.07890747 210.08505835 570.64253231 212.625 572.1875 C213.55868408 572.75774902 214.49236816 573.32799805 215.4543457 573.91552734 C252.61120574 596.38129617 293.61826149 610.69797301 336.24169922 618.49316406 C338.63528168 618.93298325 341.02270086 619.39557767 343.41015625 619.8671875 C347.92144015 620.72799215 352.44761425 621.39649223 357 622 C358.0214209 622.13680176 359.0428418 622.27360352 360.09521484 622.41455078 C397.03115005 627.09686814 436.02089928 627.21627732 473 623 C474.23959473 622.86045898 475.47918945 622.72091797 476.75634766 622.57714844 C525.91997428 616.94548292 573.4796518 605.54387897 620.375 589.9375 C621.12487183 589.6879657 621.87474365 589.4384314 622.64733887 589.18133545 C638.05293247 584.04515226 653.39119294 578.84403658 668.36914062 572.55078125 C669.18189453 572.21691406 669.99464844 571.88304687 670.83203125 571.5390625 C671.89514526 571.09361084 671.89514526 571.09361084 672.97973633 570.63916016 C675 570 675 570 679 570 C680.41625977 571.62060547 680.41625977 571.62060547 681.69140625 573.8671875 C682.16126953 574.67027344 682.63113281 575.47335937 683.11523438 576.30078125 C683.59283203 577.15027344 684.07042969 577.99976563 684.5625 578.875 C685.51623972 580.54244856 686.47564937 582.20667017 687.44140625 583.8671875 C687.86107666 584.61081543 688.28074707 585.35444336 688.71313477 586.12060547 C690.02363884 588.28525134 690.02363884 588.28525134 693 590 C660.71408822 606.69376541 627.6501973 621.08388476 592 629 C592.32355469 629.59683594 592.64710938 630.19367187 592.98046875 630.80859375 C594.33511128 633.72029667 594.33786899 635.82403148 594 639 C591.56614436 642.40204636 587.90697135 643.33625341 584.09765625 644.6015625 C583.40086761 644.83937943 582.70407898 645.07719635 581.98617554 645.32221985 C579.68220481 646.10213029 577.37320661 646.86529254 575.0625 647.625 C574.26667511 647.88878448 573.47085022 648.15256897 572.65090942 648.42434692 C537.97935537 659.86576538 502.36486004 667.57516133 466 671 C465.02248779 671.09643799 464.04497559 671.19287598 463.0378418 671.29223633 C453.218023 672.16612939 443.41314986 672.1998935 433.5625 672.1875 C432.23132645 672.18659363 432.23132645 672.18659363 430.8732605 672.18566895 C417.48548884 672.16093905 404.27920505 671.84023629 391 670 C390.0320752 669.87109375 389.06415039 669.7421875 388.06689453 669.609375 C359.56045233 665.7227463 332.02596836 658.18972425 305.625 646.6875 C304.90006348 646.37441895 304.17512695 646.06133789 303.42822266 645.73876953 C299.61733369 644.00839498 296.58810244 642.33316223 294 639 C293.53662797 634.59796571 293.51961093 632.7205836 296 629 C295.34854004 628.83508057 294.69708008 628.67016113 294.02587891 628.50024414 C262.26397688 620.38663774 232.01398651 609.32989681 203 594 C202.16404297 593.56075195 201.32808594 593.12150391 200.46679688 592.66894531 C187.89311186 586.0315855 175.77435038 578.9675197 164 571 C162.97567871 570.31357422 162.97567871 570.31357422 161.93066406 569.61328125 C148.72601537 560.75642905 136.20054754 551.20045778 124 541 C123.47857422 540.56494141 122.95714844 540.12988281 122.41992188 539.68164062 C107.33069269 527.05086909 93.14785146 513.64653066 80 499 C79.44715332 498.38656738 78.89430664 497.77313477 78.32470703 497.14111328 C56.34979928 472.63931676 37.90308848 444.8460682 24 415 C23.5354541 414.01435059 23.5354541 414.01435059 23.06152344 413.00878906 C-5.31651955 351.93877101 -16.06513322 279.67401683 -21 213 C-21.09643799 211.78183594 -21.19287598 210.56367187 -21.29223633 209.30859375 C-22.20436609 196.29998268 -22.18610042 183.28425726 -22.18530273 170.24853516 C-22.18747269 166.29969219 -22.20564137 162.35113698 -22.22460938 158.40234375 C-22.27566307 135.5423147 -21.13666808 112.75775558 -18.3125 90.0625 C-18.23107758 89.40320496 -18.14965515 88.74390991 -18.06576538 88.06463623 C-14.33092527 58.18679095 -7.95093987 29.01862315 0 0 Z " fill="#0D5320" transform="translate(356,661)"/>
<path d="M0 0 C10.66311316 -0.20908065 18.90274231 7.81752537 26.24389648 14.77294922 C76.86839685 64.55992483 99.77979234 143.0613947 106 212 C106.15142456 213.51799194 106.15142456 213.51799194 106.3059082 215.06665039 C107.2470397 225.42408962 107.2003406 235.79627341 107.1875 246.1875 C107.18656342 247.16487122 107.18562683 248.14224243 107.18466187 249.14923096 C107.1156211 282.42687932 103.22616322 314.69371155 95 347 C94.72317383 348.09070801 94.44634766 349.18141602 94.16113281 350.30517578 C85.60195873 383.57491677 74.6400237 425.36334323 53 453 C38.21043374 455.71142048 20.88647651 445.39977226 9.06640625 437.37890625 C-19.55632827 417.1845017 -42.44410189 386.04362396 -49.4453125 351.296875 C-52.84810808 331.07180833 -53.54922602 310.26913422 -50 290 C-49.8870459 289.35144043 -49.7740918 288.70288086 -49.65771484 288.03466797 C-44.49494651 260.06448932 -31.26413411 234.01880252 -18.24154663 209.01489258 C14.6894082 145.75609243 25.14140304 82.75812295 3.4387207 13.51171875 C2.67923209 11.16739867 1.89300408 8.83367667 1.1015625 6.5 C0 3 0 3 0 0 Z " fill="#A2E241" transform="translate(747,672)"/>
<path d="M0 0 C-1.3845455 4.69207086 -2.78401985 9.37213786 -4.32421875 14.015625 C-21.56248104 66.34276302 -25.77740685 121.61520771 -11 175 C-10.78537109 175.79776855 -10.57074219 176.59553711 -10.34960938 177.41748047 C-4.27879631 199.46994984 7.85742119 219.79142083 20 239 C20.6177832 239.9782373 21.23556641 240.95647461 21.87207031 241.96435547 C27.64055713 251.07241766 33.46026483 260.1475025 39.3828125 269.15625 C47.96526513 282.21735582 56.10681797 295.51092187 64 309 C64.51868652 309.88187988 65.03737305 310.76375977 65.57177734 311.67236328 C77.37169633 331.87673833 86.1308139 353.34700101 92 376 C92.28810547 377.09828125 92.28810547 377.09828125 92.58203125 378.21875 C95.24331753 388.94515576 95.2749249 399.82322942 95.3125 410.8125 C95.31635712 411.51646912 95.32021423 412.22043823 95.32418823 412.94573975 C95.42816245 451.48814025 80.57100309 487.45387284 55 516 C54.23816406 516.89460938 53.47632813 517.78921875 52.69140625 518.7109375 C47.3417011 524.90934811 41.51149057 530.04855404 35 535 C34.47277344 535.4021875 33.94554687 535.804375 33.40234375 536.21875 C7.44022688 555.8591221 -22.48668822 568.74873067 -55.62890625 564.5390625 C-58.11374004 564.10112245 -60.55399592 563.6156235 -63 563 C-62.32517578 561.66775391 -62.32517578 561.66775391 -61.63671875 560.30859375 C-59.82761567 556.72443115 -58.04007176 553.12980312 -56.2578125 549.53222656 C-55.41564704 547.83678011 -54.56925185 546.14342841 -53.71875 544.45214844 C-41.56925739 520.23452143 -32.47557382 495.0173163 -25 469 C-24.76087891 468.18515137 -24.52175781 467.37030273 -24.27539062 466.53076172 C-13.99396223 431.26184423 -9.780589 394.64204739 -9.75 358 C-9.74866058 357.0441098 -9.74732117 356.0882196 -9.74594116 355.10336304 C-9.75293221 331.92127394 -11.0826324 308.71625438 -16 286 C-16.31541748 284.51089111 -16.31541748 284.51089111 -16.63720703 282.99169922 C-18.34273677 274.97512338 -20.13744417 266.98150167 -22 259 C-22.20351074 258.12553223 -22.40702148 257.25106445 -22.61669922 256.35009766 C-29.07443003 229.08968533 -39.32140934 202.78310272 -52.77392578 178.24169922 C-53.93554341 176.11784955 -55.07676141 173.98418207 -56.21484375 171.84765625 C-68.24798014 149.53887976 -84.71229379 125.79636364 -107 113 C-99.03265087 86.05665268 -78.31168148 60.78569953 -60 40 C-59.5477002 39.48453613 -59.09540039 38.96907227 -58.62939453 38.43798828 C-44.95047387 22.93326919 -22.68725617 -0.63020156 0 0 Z " fill="#52A638" transform="translate(863,562)"/>
<path d="M0 0 C1.41625977 1.62060547 1.41625977 1.62060547 2.69140625 3.8671875 C3.16126953 4.67027344 3.63113281 5.47335937 4.11523438 6.30078125 C4.83163086 7.57501953 4.83163086 7.57501953 5.5625 8.875 C6.51623972 10.54244856 7.47564937 12.20667017 8.44140625 13.8671875 C9.07091187 14.98262939 9.07091187 14.98262939 9.71313477 16.12060547 C11.02363884 18.28525134 11.02363884 18.28525134 14 20 C-19.60871069 37.3777323 -54.62706305 52.92806459 -91.95385742 60.390625 C-99.04208197 61.82215035 -105.83019054 64.15239665 -112.69155884 66.39520264 C-146.50342377 77.38204873 -181.50385502 85.20054016 -217 88 C-218.31355469 88.11085938 -219.62710938 88.22171875 -220.98046875 88.3359375 C-272.1174732 92.23060178 -325.77994095 85.02282187 -372 62 C-368.54728174 60.84909391 -366.8241713 61.16736325 -363.2578125 61.7421875 C-362.10796875 61.92136719 -360.958125 62.10054687 -359.7734375 62.28515625 C-358.56945312 62.47980469 -357.36546875 62.67445312 -356.125 62.875 C-341.66288358 65.19469788 -327.44573573 66.23781751 -312.8125 66.25 C-312.07421967 66.25067474 -311.33593933 66.25134949 -310.57528687 66.25204468 C-287.65243257 66.21909671 -265.25162144 63.29170597 -243.12133789 57.20874023 C-235.76987175 55.22249135 -228.77954439 54.43675184 -221.1875 54.0625 C-165.57755938 50.67361144 -111.31873162 37.47353239 -58.625 19.9375 C-57.87512817 19.6879657 -57.12525635 19.4384314 -56.35266113 19.18133545 C-40.94706753 14.04515226 -25.60880706 8.84403658 -10.63085938 2.55078125 C-9.41172852 2.04998047 -9.41172852 2.04998047 -8.16796875 1.5390625 C-7.10485474 1.09361084 -7.10485474 1.09361084 -6.02026367 0.63916016 C-4 0 -4 0 0 0 Z " fill="#0D5420" transform="translate(1035,1231)"/>
<path d="M0 0 C5.54822358 1.10055011 10.08942452 4.49781946 14.77612305 7.52587891 C17.01429361 8.91747662 19.25386966 10.30681648 21.49487305 11.69384766 C22.56350586 12.36206543 23.63213867 13.0302832 24.7331543 13.71875 C52.42063839 30.86590171 84.13621417 41.08233524 115.65112305 48.52587891 C116.46983887 48.72020508 117.28855469 48.91453125 118.13208008 49.11474609 C151.48798559 56.89846992 187.44340339 59.8641928 221.65112305 58.52587891 C222.92487793 58.47802246 224.19863281 58.43016602 225.51098633 58.38085938 C254.6490447 57.22451567 283.23406768 53.89753256 311.90112305 48.58837891 C313.22635986 48.34374908 313.22635986 48.34374908 314.57836914 48.09417725 C331.95611027 44.86038302 349.21668098 41.06050205 366.15112305 35.96337891 C367.09213867 35.68558594 368.0331543 35.40779297 369.00268555 35.12158203 C371.88863059 34.26641439 374.7704448 33.39861451 377.65112305 32.52587891 C378.64499023 32.22576904 379.63885742 31.92565918 380.6628418 31.61645508 C389.70251711 28.86314403 398.68369571 25.94207942 407.65112305 22.96337891 C408.81733688 22.5762825 408.81733688 22.5762825 410.0071106 22.18136597 C426.5914053 16.66074281 442.93325045 10.58606613 459.17504883 4.1237793 C460.32344238 3.67123779 461.47183594 3.21869629 462.6550293 2.75244141 C463.68571533 2.34203613 464.71640137 1.93163086 465.77832031 1.50878906 C469.7902815 0.1361235 473.5147979 -0.68664052 477.65112305 0.52587891 C481.01792347 2.84699073 482.4567425 5.57341424 483.27612305 9.58837891 C482.44337789 13.50228112 480.86409156 15.33392039 477.65112305 17.52587891 C474.10332718 19.47923733 470.39010853 20.97745122 466.65112305 22.52587891 C465.20280028 23.1564574 463.75491689 23.78804563 462.30737305 24.42041016 C446.17678069 31.34632322 429.53769704 36.71560356 412.86230469 42.14794922 C409.4709199 43.25435913 406.08634524 44.37988233 402.70431519 45.51452637 C379.02683145 53.4574291 355.03627936 59.56877913 330.69372559 65.06381226 C328.82591849 65.48633761 326.95962828 65.91555417 325.09350586 66.34545898 C315.98999704 68.38400323 306.8273245 69.84055504 297.60375977 71.20581055 C295.04944869 71.58491696 292.49677415 71.97386511 289.9440918 72.36376953 C200.29343965 85.88128741 101.85321667 78.69800558 -0.03637695 22.02587891 C-0.83309814 21.53345703 -1.62981934 21.04103516 -2.45068359 20.53369141 C-9.35793207 16.13879048 -9.35793207 16.13879048 -11.34887695 12.52587891 C-12.06264385 8.42171927 -11.50174956 6.79217313 -9.41137695 3.15087891 C-6.61870974 0.20066667 -4.06112308 -0.12725646 0 0 Z " fill="#74BF37" transform="translate(564.348876953125,1209.47412109375)"/>
<path d="M0 0 C3.75973291 3.75973291 4.19163904 9.76324208 5.4375 14.8125 C5.90663818 16.70355469 5.90663818 16.70355469 6.38525391 18.6328125 C18.93690394 70.60335717 14.50667446 122.54209317 -8 171 C-8.41830078 171.90814453 -8.83660156 172.81628906 -9.26757812 173.75195312 C-13.75982343 183.47460611 -18.47448871 193.07138048 -23.4375 202.5625 C-24.0572168 203.75020996 -24.0572168 203.75020996 -24.68945312 204.96191406 C-25.07939453 205.69764648 -25.46933594 206.43337891 -25.87109375 207.19140625 C-26.21068115 207.83279541 -26.55026855 208.47418457 -26.90014648 209.13500977 C-28.12599207 211.21364116 -29.52179235 213.09461965 -31 215 C-33.63508572 200.08705226 -33.39623484 185.00722449 -33.37755966 169.91634369 C-33.37498066 167.73363278 -33.37561889 165.55093712 -33.37637329 163.3682251 C-33.35388331 107.24135548 -23.01915139 51.45919508 0 0 Z " fill="#4BA138" transform="translate(750,685)"/>
<path d="M0 0 C7.79413102 2.04317406 15.52382316 3.83674296 23.5 5 C24.25958008 5.11126221 25.01916016 5.22252441 25.80175781 5.3371582 C37.58256919 6.95003788 49.31289901 7.38981691 61.1875 7.375 C61.93467285 7.37506042 62.6818457 7.37512085 63.45166016 7.37518311 C74.84683243 7.36210409 86.06595586 6.88523155 97.38427734 5.47851562 C99.9271809 5.16570437 102.47229053 4.88455 105.01953125 4.609375 C109.26484668 4.15048737 113.50780865 3.67439376 117.75 3.1875 C114.57632497 5.30328336 111.92996958 6.198605 108.29296875 7.32421875 C107.64663483 7.52443634 107.0003009 7.72465393 106.3343811 7.93093872 C104.20432528 8.58657158 102.07147119 9.23223046 99.9375 9.875 C99.20203949 10.09715179 98.46657898 10.31930359 97.70883179 10.54818726 C66.78280082 19.84575906 34.98655355 26.64511301 2.75 29.1875 C0.77966797 29.35378906 0.77966797 29.35378906 -1.23046875 29.5234375 C-52.3674732 33.41810178 -106.02994095 26.21032187 -152.25 3.1875 C-148.79728174 2.03659391 -147.0741713 2.35486325 -143.5078125 2.9296875 C-141.78304687 3.19845703 -141.78304687 3.19845703 -140.0234375 3.47265625 C-138.81945312 3.66730469 -137.61546875 3.86195312 -136.375 4.0625 C-121.91288358 6.38219788 -107.69573573 7.42531751 -93.0625 7.4375 C-92.32421967 7.43817474 -91.58593933 7.43884949 -90.82528687 7.43954468 C-67.85634932 7.40653047 -44.59999246 4.98948047 -22.60546875 -1.96484375 C-14.49942647 -4.01258668 -7.86508987 -2.15776369 0 0 Z " fill="#000000" transform="translate(815.25,1289.8125)"/>
<path d="M0 0 C1.05904541 0.46253174 2.11809082 0.92506348 3.20922852 1.40161133 C4.89616821 2.14060669 4.89616821 2.14060669 6.6171875 2.89453125 C17.42910444 7.53332473 28.13782404 11.62972182 39.4921875 14.70703125 C40.40693848 14.95791504 41.32168945 15.20879883 42.26416016 15.46728516 C59.145334 20.01405282 76.13173797 22.74364708 93.4921875 24.70703125 C94.25144531 24.7932373 95.01070312 24.87944336 95.79296875 24.96826172 C100.02336168 25.41736402 104.24147276 25.62345788 108.4921875 25.70703125 C109.41016113 25.72749512 110.32813477 25.74795898 111.27392578 25.76904297 C165.37257344 26.79072806 220.43239436 17.4070161 271.14379883 -1.70532227 C275.29198875 -3.19841676 278.24781207 -3.62673724 282.4921875 -2.29296875 C284.80501337 1.17627006 284.91697336 2.629087 284.4921875 6.70703125 C282.06307029 10.11117442 278.39771109 11.04376555 274.58984375 12.30859375 C273.89305511 12.54641068 273.19626648 12.7842276 272.47836304 13.0292511 C270.17439231 13.80916154 267.86539411 14.57232379 265.5546875 15.33203125 C264.75886261 15.59581573 263.96303772 15.85960022 263.14309692 16.13137817 C228.47154287 27.57279663 192.85704754 35.28219258 156.4921875 38.70703125 C155.51467529 38.80346924 154.53716309 38.89990723 153.5300293 38.99926758 C143.7102105 39.87316064 133.90533736 39.90692475 124.0546875 39.89453125 C123.16723846 39.893927 122.27978943 39.89332275 121.365448 39.8927002 C107.97767634 39.8679703 94.77139255 39.54726754 81.4921875 37.70703125 C80.5242627 37.578125 79.55633789 37.44921875 78.55908203 37.31640625 C50.05263983 33.42977755 22.51815586 25.8967555 -3.8828125 14.39453125 C-4.60774902 14.0814502 -5.33268555 13.76836914 -6.07958984 13.44580078 C-9.89386009 11.71389092 -12.90664439 10.03183259 -15.5078125 6.70703125 C-16.0703125 3.14453125 -16.0703125 3.14453125 -15.5078125 -0.29296875 C-10.36191602 -4.99778839 -5.72239543 -2.53529423 0 0 Z " fill="#1B7D37" transform="translate(665.5078125,1293.29296875)"/>
<path d="M0 0 C-1.65721213 4.90419172 -4.43384478 8.8947074 -7.25 13.1875 C-19.83707251 32.81447304 -30.01944611 53.51146023 -39 75 C-39.46776855 76.11922852 -39.93553711 77.23845703 -40.41748047 78.39160156 C-41.61401543 81.26009359 -42.8082366 84.12952292 -44 87 C-44.66 87 -45.32 87 -46 87 C-47.35009766 85.11767578 -47.35009766 85.11767578 -48.9140625 82.4453125 C-49.50243896 81.45047852 -50.09081543 80.45564453 -50.69702148 79.43066406 C-51.33325439 78.33979492 -51.9694873 77.24892578 -52.625 76.125 C-53.98169408 73.82989687 -55.33972121 71.53562662 -56.69921875 69.2421875 C-57.05019119 68.64849365 -57.40116364 68.0547998 -57.76277161 67.44311523 C-61.57821132 60.99836098 -65.5021087 54.62198663 -69.4375 48.25 C-70.07445801 47.21762207 -70.71141602 46.18524414 -71.36767578 45.12158203 C-72.29749268 43.6150708 -72.29749268 43.6150708 -73.24609375 42.078125 C-73.85179199 41.09521484 -74.45749023 40.11230469 -75.08154297 39.09960938 C-76.46362071 36.86661638 -77.85310231 34.63937023 -79.25048828 32.41601562 C-79.62142105 31.82230164 -79.99235382 31.22858765 -80.37452698 30.61688232 C-81.4187822 28.94559803 -82.4672134 27.27692512 -83.51586914 25.60839844 C-85 23 -85 23 -85 21 C-85.66 20.67 -86.32 20.34 -87 20 C-28.54363706 -1.01941561 -28.54363706 -1.01941561 0 0 Z " fill="#1B7331" transform="translate(750,312)"/>
<path d="M0 0 C3.70303186 3.648973 7.24605963 7.41053355 10.75 11.25 C26.93463233 28.83563084 45.1644744 43.48924669 65.7890625 55.609375 C66.51867187 56.06828125 67.24828125 56.5271875 68 57 C68 57.33 68 57.66 68 58 C64.52754142 58.09470342 61.07318435 58.11406376 57.6015625 58.0234375 C54.38953443 57.94977351 51.33800126 58.16942369 48.1484375 58.5390625 C42.64057796 58.92185227 37.88426896 58.80044367 33 56 C26.99894909 49.65376721 23.10868235 41.61891758 19.12791443 33.91549683 C15.76486512 27.42194442 11.93106046 21.26613485 8.02258301 15.09057617 C6.30113225 12.36886743 4.59721349 9.63676797 2.90234375 6.8984375 C2.05917603 5.54758057 2.05917603 5.54758057 1.19897461 4.16943359 C0 2 0 2 0 0 Z " fill="#165A22" transform="translate(694,1210)"/>
<path d="M0 0 C18.48 0.33 36.96 0.66 56 1 C52.04336596 3.63775603 48.15626693 4.3645906 43.5625 5.4375 C42.63687256 5.65559326 41.71124512 5.87368652 40.75756836 6.09838867 C34.22779158 7.59215737 27.68584245 8.81580449 21.0625 9.8125 C20.24144775 9.93616943 19.42039551 10.05983887 18.57446289 10.18725586 C14.26008834 10.79681298 10.42414907 11 6 11 C4.02 7.37 2.04 3.74 0 0 Z " fill="#175C23" transform="translate(740,1286)"/>
</svg>
